Coordinates
version=1
nRows=15
nColumns=34
inDegrees=yes

Units are S.I. units (second, meters, Newtons, ...)
If the header above contains a line with 'inDegrees', this indicates whether rotational values are in degrees (yes) or radians (no).

endheader
time	bJoint_0	bJoint_1	bJoint_2	bJoint_3	bJoint_4	bJoint_5	seatpos	slocangle	soarinout	sblpos	plocangle	poarinout	pblpos	hipangle	kneeangle	footangle	lbackangle	uarmleft_out	uarmleft_trn	uarmleft_up	se_inout	se_updown	handleleft_out	handleleft_trn	handleleft_up	uarmright_out	uarmright_trn	uarmright_up	pe_inout	pe_updown	handleright_out	handleright_trn	handleright_up
      2.52000000	      0.00000000	     -0.00000000	     -0.00000000	     -0.00000000	     -0.00000000	      0.00000000	     -0.48267066	     68.47209231	     17.55750645	    -17.10586328	     67.40011584	     16.03861517	    -10.59215541	     33.46725037	    122.00214936	     65.46939974	     11.05735099	    -52.12929010	    -73.01964718	    -70.16010444	      6.58853952	     -4.04941861	      0.42778578	     49.84610036	     47.76194605	    -73.08677995	    -77.51702825	    -88.66725341	      3.28689793	     -3.85899818	      8.31757307	    -54.60344643	     56.23641173
      2.54000000	      0.00000000	      0.00000000	     -0.00000000	      0.00000000	      0.00000000	      0.00000000	     -0.48180866	     68.33744819	     17.54096852	    -17.01515470	     67.26979070	     16.03201319	    -10.56606686	     33.52380327	    121.88163778	     65.40544105	     11.02682419	    -52.19640259	    -73.05248996	    -70.01003626	      6.57227636	     -4.06160936	      0.35049000	     49.88741429	     47.89626254	    -73.15741289	    -77.56074770	    -88.53265106	      3.25166696	     -3.87775846	      8.39474103	    -54.64001664	     56.36109143
      2.56000000	      0.00000000	      0.00000000	     -0.00000000	     -0.00000000	     -0.00000000	      0.00000000	     -0.48075368	     68.20272425	     17.52351605	    -16.93892126	     67.13756011	     16.02219106	    -10.52607819	     33.59310533	    121.73404358	     65.32714891	     11.01339196	    -52.26569749	    -73.06371186	    -69.87116803	      6.55194953	     -4.06250138	      0.29448745	     49.92978256	     48.01820124	    -73.23051604	    -77.58346479	    -88.39863883	      3.21865003	     -3.89652621	      8.46497511	    -54.67972426	     56.48124458
      2.58000000	      0.00000000	     -0.00000000	     -0.00000000	     -0.00000000	     -0.00000000	     -0.00000000	     -0.47959393	     68.05079770	     17.50475508	    -16.86306218	     66.99838349	     16.02417421	    -10.51305194	     33.66939911	    121.57166179	     65.24106090	     10.99566666	    -52.34318579	    -73.07549340	    -69.71379363	      6.53654751	     -4.06429915	      0.22684429	     49.97354256	     48.15809697	    -73.30709975	    -77.59227647	    -88.26546628	      3.18671432	     -3.90618085	      8.52436324	    -54.72359697	     56.59648971
      2.60000000	      0.00000000	     -0.00000000	     -0.00000000	     -0.00000000	      0.00000000	     -0.00000000	     -0.47696341	     67.92245396	     17.52407394	    -16.95531396	     66.86804349	     16.04277792	    -10.60665802	     33.84287804	    121.20283482	     65.04571286	     11.09953969	    -52.43708821	    -72.83718555	    -69.71097514	      6.55574036	     -3.93849598	      0.38011250	     49.98570122	     48.14876932	    -73.39156156	    -77.36353987	    -88.17716765	      3.23008803	     -3.89681910	      8.48532589	    -54.77277278	     56.62563817
      2.62000000	      0.00000000	      0.00000000	     -0.00000000	      0.00000000	      0.00000000	      0.00000000	     -0.47574036	     67.78757075	     17.53601894	    -17.01335264	     66.72902772	     16.05113239	    -10.64427802	     33.92373863	    121.03110756	     64.95484619	     11.08313496	    -52.51224402	    -72.79773928	    -69.60182572	      6.55571409	     -3.91564173	      0.36826202	     50.01559997	     48.23425861	    -73.46064126	    -77.36746983	    -88.05551918	      3.18440751	     -3.87280159	      8.52694366	    -54.82509615	     56.74068960
      2.64000000	      0.00000000	     -0.00000000	     -0.00000000	      0.00000000	      0.00000000	     -0.00000000	     -0.47483542	     67.64675616	     17.52337679	    -16.92892228	     66.58445218	     16.03777835	    -10.60974053	     33.98365073	    120.90394537	     64.88759610	     11.05039633	    -52.58359371	    -72.82549819	    -69.44681407	      6.54414853	     -3.93433925	      0.29132137	     50.05497575	     48.36455973	    -73.53655953	    -77.42568194	    -87.90210026	      3.14536080	     -3.89821155	      8.62276854	    -54.86261446	     56.88502411
      2.66000000	      0.00000000	     -0.00000000	     -0.00000000	      0.00000000	     -0.00000000	      0.00000000	     -0.47374519	     67.50701923	     17.51184521	    -16.87672002	     66.44489432	     16.03025682	    -10.56154816	     34.05592368	    120.75063233	     64.80655602	     11.03393876	    -52.65846109	    -72.82881238	    -69.30506636	      6.53115288	     -3.94510425	      0.23750652	     50.09392999	     48.47778508	    -73.61174147	    -77.44862500	    -87.76176757	      3.11403800	     -3.91697805	      8.69762254	    -54.90228522	     57.01004228
      2.68000000	      0.00000000	     -0.00000000	     -0.00000000	      0.00000000	     -0.00000000	     -0.00000000	     -0.47180718	     67.39210816	     17.54607711	    -17.04897188	     66.31113908	     16.03989531	    -10.59308157	     34.18464978	    120.47779358	     64.66244336	     11.08306719	    -52.76494767	    -72.66810048	    -69.26527912	      6.52950254	     -3.95350789	      0.35027126	     50.11712422	     48.42148933	    -73.68811576	    -77.32568709	    -87.66015863	      3.13338877	     -3.89687215	      8.70972774	    -54.94308880	     57.09192722
      2.70000000	      0.00000000	      0.00000000	     -0.00000000	     -0.00000000	     -0.00000000	     -0.00000000	     -0.47079723	     67.24666109	     17.51618369	    -16.94559359	     66.18288335	     16.03564996	    -10.57250683	     34.25186091	    120.33545208	     64.58731300	     11.06737570	    -52.83879509	    -72.69476173	    -69.09792954	      6.52248848	     -3.98383679	      0.26000461	     50.15493146	     48.56317892	    -73.75692318	    -77.34478566	    -87.53288801	      3.10301716	     -3.91280347	      8.77476102	    -54.98077529	     57.20279772
      2.72000000	      0.00000000	      0.00000000	     -0.00000000	     -0.00000000	     -0.00000000	      0.00000000	     -0.46878077	     67.10406151	     17.53526475	    -17.00269786	     66.04603843	     16.06633688	    -10.70811635	     34.38631674	    120.05093087	     64.43724761	     11.10833660	    -52.93294270	    -72.57654715	    -69.02940157	      6.48439054	     -3.92904610	      0.34475883	     50.20320158	     48.58270909	    -73.85284310	    -77.20032056	    -87.43269498	      3.12403976	     -3.93261561	      8.76701356	    -55.02761572	     57.24105133
      2.74000000	      0.00000000	     -0.00000000	     -0.00000000	     -0.00000000	     -0.00000000	      0.00000000	     -0.46793210	     66.96881035	     17.51960189	    -16.91875467	     65.91484846	     16.05951596	    -10.68230621	     34.44300970	    119.93105522	     64.37406492	     11.07889988	    -52.99952734	    -72.60539087	    -68.87716432	      6.47743888	     -3.95138555	      0.26395259	     50.23819613	     48.71045858	    -73.92156825	    -77.24447046	    -87.29610186	      3.09210636	     -3.95662419	      8.84859756	    -55.06114908	     57.36343696
      2.76000000	      0.00000000	     -0.00000000	     -0.00000000	     -0.00000000	      0.00000000	     -0.00000000	     -0.46603866	     66.83539251	     17.53614942	    -17.00871825	     65.75645408	     16.04537881	    -10.60974495	     34.56971974	    119.66332511	     64.23304485	     11.12042505	    -53.10026621	    -72.48216517	    -68.80642031	      6.46568157	     -3.94131924	      0.33516080	     50.27147874	     48.71254739	    -74.00310670	    -77.18625514	    -87.15641047	      3.06958394	     -3.94088800	      8.89835212	    -55.11512722	     57.49337757
      2.78000000	      0.00000000	      0.00000000	      0.00000000	      0.00000000	      0.00000000	     -0.00000000	     -0.46480590	     66.69600702	     17.55042892	    -17.06482432	     65.61834825	     16.06263428	    -10.69256359	     34.65238193	    119.48880800	     64.14118993	     11.10289820	    -53.19424700	    -72.44630787	    -68.68222137	      6.46160860	     -3.98238627	      0.32157731	     50.30449251	     48.76419007	    -74.07432274	    -77.16291088	    -87.03535353	      3.06179811	     -3.93446257	      8.94492293	    -55.15098814	     57.59616158
      2.80000000	      0.00000000	      0.00000000	     -0.00000000	      0.00000000	      0.00000000	      0.00000000	     -0.46391263	     66.56849939	     17.55948529	    -17.12123117	     65.48200706	     16.05663250	    -10.64719979	     34.71236284	    119.36224651	     64.07460936	     11.07375002	    -53.25767347	    -72.34420945	    -68.55177664	      6.64401299	     -3.99873426	      0.23825934	     50.23316341	     48.87687344	    -74.15723031	    -77.19563023	    -86.90268531	      3.05065348	     -3.96692902	      9.04041745	    -55.17687785	     57.72663445
